_________________________  Visit us at _________________________
  
http://p2pdl.com  ____________________________  http://p2pdl.com

 
http://www.shotpix.com/images/84546799361769967918.jpg


Double Indemnity 1944 HDTVRip 720p x264 AAC - PRiSTiNE [P2PDL]
				
Genre: Crime | Drama | Film-Noir | Thriller
An insurance rep lets himself be talked into a murder/insurance fraud scheme that arouses an insurance investigator's suspicions.
Director: Billy Wilder
Stars: Fred MacMurray, Barbara Stanwyck, Edward G. Robinson
Rated: N/A

  
http://www.imdb.com/title/tt0036775/
 
http://www.rottentomatoes.com/m/double_indemnity/


General
Format                         : MPEG-4
Format profile                 : Base Media / Version 2
Codec ID                       : mp42
File size                      : 480 MiB
Duration                       : 1h 43mn
Overall bit rate mode          : Variable
Overall bit rate               : 651 Kbps
Movie name                     : Double Indemnity 1944 HDTVRip 720p x264 AAC - PRiSTiNE [P2PDL]

Source                         : 720p.HDTV.x264-x0r (Thanks)

Video
Format                         : AVC
Width                          : 960 pixels
Height                         : 720 pixels
Display aspect ratio           : 4:3
Frame rate mode                : Variable
Frame rate                     : 25.000 fps
Stream size                    : 406 MiB (84%)
Writing library                : x264 core 128

Audio
Format                         : AAC
Bit rate                       : 96.0 Kbps
Sampling rate                  : 48.0 KHz
Stream size                    : 70.9 MiB (15%)
Language                       : English

Subtitle                       : Yes [Muxed]( English)


Screens:
 
http://www.shotpix.com/images/69799887280378611464.jpg 
http://www.shotpix.com/images/18566557137001495529.jpg 
http://www.shotpix.com/images/83319346398584904987.jpg 
http://www.shotpix.com/images/32930028152807595186.jpg 
http://www.shotpix.com/images/80414593975231620000.jpg


Thumbs:
 
http://www.shotpix.com/images/86886238860392736615.jpg

----------------------------------------------------------------------------------------------------


Recommend to you to use latest version of VLC player. Install K-Lite Codec Pack or shark007 codecs
in case of any kind of problem in playback (For non-VLC Media Player users). Alternatively, install
Core AVC codecs, the fastest decoder that there is coupled with Community Center Codec Pack and play
on Windows Media Player Classic. Check sample to be sure.
Enjoy!

Greets to: VYTO, a2zRG, MusiK_KinG, Neon, Kuroyukihime, TorDigger, Ash968, StyLishSaLH and staff members at
ExtraTorrent, TPB, H33T, KAT, 1337x, PublicHD, Ahashare, BTScene, SilverTorrent, LimeTorrents, TorrentMafia,
P2PDL, and all others.

Encoder Notes: Looking For Early Access To Anything You Can Provide DVDScr, R5, DVDR, BluRay, Direct
Audio, Early Music Releases, Seedboxes, Dedicated Servers anything u can provide, Advance / Promo CDs/
DVDs. If You Got anything to offer contact me at "prg@hush.com".